<?xml version="1.0" encoding="UTF-8"?>
<svg width="1200pt" height="1200pt" version="1.1" viewBox="0 0 1200 1200" xmlns="http://www.w3.org/2000/svg">
 <path d="m655.45 328.74v77.062-0.046875c0 9.375-7.5469 16.969-16.922 16.969h-77.062c-4.5 0-8.8125-1.7812-11.953-4.9688-3.1875-3.1875-4.9688-7.5-4.9688-12v-77.016c0-4.5 1.7812-8.8125 4.9688-12 3.1406-3.1875 7.4531-4.9688 11.953-4.9688h77.062c9.375 0 16.922 7.5938 16.922 16.969zm-279.94 0v77.062-0.046875c0 4.5-1.7812 8.8125-4.9688 12-3.1406 3.1875-7.4531 4.9688-11.953 4.9688h-78.656c-4.4531 0-8.7656-1.7812-11.953-4.9688s-4.9688-7.5-4.9219-12v-77.016c-0.046875-4.5 1.7344-8.8125 4.9219-12s7.5-4.9688 11.953-4.9688h78.656c4.5 0 8.8125 1.7812 11.953 4.9688 3.1875 3.1875 4.9688 7.5 4.9688 12zm488.29-99.094v-78.656c0-4.5 1.7812-8.7656 4.9219-11.953 3.1875-3.1875 7.5-4.9688 12-4.9688h215.44c9.375 0 16.922 7.5938 16.922 16.922v898.03c0 9.3281-7.5469 16.922-16.922 16.922h-215.44c-4.5 0-8.8125-1.7812-12-4.9688-3.1406-3.1875-4.9219-7.4531-4.9219-11.953v-77.016c0-9.3281 7.5469-16.922 16.922-16.922h119.91v-708.52h-119.91c-9.375 0-16.922-7.5938-16.922-16.922zm-664.45 725.39v-708.47h119.91c9.375 0 16.922-7.5938 16.922-16.922v-78.656c0-4.5-1.7812-8.7656-4.9219-11.953-3.1875-3.1875-7.5-4.9688-12-4.9688h-215.44c-9.375 0-16.922 7.5938-16.922 16.922v898.03c0 9.3281 7.5469 16.922 16.922 16.922h215.44c4.5 0 8.8125-1.7812 12-4.9688 3.1406-3.1875 4.9219-7.4531 4.9219-11.953v-77.016c0-9.3281-7.5469-16.922-16.922-16.922zm737.58-160.78 0.046875-0.046875c0-9.3281-7.5938-16.922-16.922-16.922h-78.656c-9.3281 0-16.922 7.5938-16.922 16.922v78.609c0 9.375 7.5938 16.922 16.922 16.969h78.656c9.3281 0 16.922-7.5938 16.922-16.969v-78.562zm-281.53 0v78.609l0.046875-0.046875c0 9.375-7.5469 16.969-16.922 16.969h-77.062c-4.5 0-8.8125-1.7812-11.953-4.9688-3.1875-3.1875-4.9688-7.5-4.9688-12v-78.562c0-4.5 1.7812-8.8125 4.9688-12 3.1406-3.1875 7.4531-4.9688 11.953-4.9688h77.062c9.375 0 16.922 7.5938 16.922 16.969zm-279.94 0v78.609l0.046875-0.046875c0 4.5-1.7812 8.8125-4.9688 12-3.1406 3.1875-7.4531 4.9688-11.953 4.9688h-78.656c-4.4531 0-8.7656-1.7812-11.953-4.9688s-4.9688-7.5-4.9219-12v-78.562c-0.046875-4.5 1.7344-8.8125 4.9219-12s7.5-4.9688 11.953-4.9688h78.656c4.5 0 8.8125 1.7812 11.953 4.9688 3.1875 3.1875 4.9688 7.5 4.9688 12zm561.47-232.78 0.046875-0.046874c0-4.5-1.7812-8.8125-4.9688-12-3.1875-3.1406-7.5-4.9219-11.953-4.9219h-78.656c-9.3281 0-16.922 7.5469-16.922 16.922v78.656-0.046876c0 9.375 7.5938 16.922 16.922 16.922h78.656c4.4531 0 8.7656-1.7812 11.953-4.9219 3.1875-3.1875 4.9688-7.5 4.9688-12v-78.562zm-281.53 0v78.656l0.046875-0.09375c0 4.5-1.7812 8.8125-4.9688 12-3.1406 3.1406-7.4531 4.9219-11.953 4.9219h-77.062c-9.3281 0-16.922-7.5469-16.922-16.922v-78.562c0-9.3281 7.5938-16.922 16.922-16.922h77.062c4.5 0 8.8125 1.7812 11.953 4.9688 3.1875 3.1406 4.9688 7.4531 4.9688 11.953zm-279.94 0v78.656l0.046875-0.09375c0 9.375-7.5938 16.922-16.922 16.922h-78.656c-9.3281 0-16.875-7.5469-16.875-16.922v-78.562c0-9.3281 7.5469-16.922 16.875-16.922h78.656c9.3281 0 16.922 7.5938 16.922 16.922zm561.47-232.78 0.046875-0.09375c0-9.3281-7.5938-16.922-16.922-16.922h-78.656c-9.3281 0-16.922 7.5938-16.922 16.922v77.062c0 9.3281 7.5938 16.922 16.922 16.922h78.656c9.3281 0 16.922-7.5469 16.922-16.922z" fill-rule="evenodd"/>
</svg>
